# xmcd
#
# Track frame offsets:
#	150
#	11313
#	24162
#	35445
#	49299
#	61681
#	74415
#	86412
#	98162
#	109284
#	122029
#	138721
#	154107
#	168242
#	182135
#	193698
#	208454
#	219864
#	229750
#	234533
#
# Disc length: 3278 seconds
#
# Revision: 2
# Processed by: cddbd v1.5.2PL0 Copyright (c) Steve Scherf et al.
# Submitted via: VUPlayer 2.49
#
DISCID=130ccc14
DTITLE=Various Artist - That's Country CD-3
DYEAR=2002
DGENRE=Country
TTITLE0=Conway Twitty - Broken Heart
TTITLE1=Tina Turner - Freedom To Stay
TTITLE2=Razzy Bailey - She Wanted To
TTITLE3=Anne Murray - A Little Good News
TTITLE4=Johnny Gash - Give Me Love To Rose
TTITLE5=Faron Young - Swinging Doors
TTITLE6=Merle Haggard - The Fightin' Side of Me
TTITLE7=Ralph Stanley - Are You Proud of America
TTITLE8=Tammy Wynette - D.I.V.O.R.C.E.
TTITLE9=Jim Reeves - How's the World Treating You
TTITLE10=Terry Gibbs - She Don't Know
TTITLE11=Razzy Bailey - Your Cheating Heart
TTITLE12=Dottie West - What Are We Doin' in Love
TTITLE13=Tex Ritter - The Cattle Call
TTITLE14=Dolly Parton - Letter To Heaven
TTITLE15=Willie Nelson - And, So Will You Love Me
TTITLE16=George Jones - She's My Rock
TTITLE17=Ronnie McDowell - Watchin' Girls Go By
TTITLE18=Tammy Wynette - Your Good Girls Gonna Go Bad
TTITLE19=David Fritzell - If You Got the Money Honey
EXTD=Disk 3 of 5
EXTT0=
EXTT1=
EXTT2=
EXTT3=
EXTT4=
EXTT5=
EXTT6=
EXTT7=
EXTT8=
EXTT9=
EXTT10=
EXTT11=
EXTT12=
EXTT13=
EXTT14=
EXTT15=
EXTT16=
EXTT17=
EXTT18=
EXTT19=
PLAYORDER=
